<svg height="464pt" viewBox="0 -24 464 464" width="464pt" xmlns="http://www.w3.org/2000/svg"><path d="m128 32c-17.511719 0-32 38.496094-32 58.152344 0 10.296875 5.023438 20.023437 13.449219 26.023437 6.605469 4.703125 10.550781 12.113281 10.550781 19.824219v144c0 4.414062 3.585938 8 8 8s8-3.585938 8-8v-144c0-7.710938 3.945312-15.121094 10.550781-19.832031 8.425781-6 13.449219-15.71875 13.449219-26.015625 0-19.65625-14.488281-58.152344-32-58.152344zm0 0"/><path d="m432 80v256h-400v-256h-32v288h192v8c0 22.054688 17.945312 40 40 40s40-17.945312 40-40v-8h192v-288zm0 0"/><path d="m224 192h16v128h176v-320h-106.742188c-25.984374 0-50.417968 9.808594-69.257812 27.527344v148.472656h-16v-148.472656c-18.839844-17.71875-43.273438-27.527344-69.257812-27.527344h-106.742188v320h176zm120-176h16v81.609375h-16zm-32 0h16v81.609375h-16zm-32 0h16v56c0 14.710938 5.0625 29.136719 14.246094 40.609375 11.449218 14.320313 17.753906 32.285156 17.753906 50.613281v116.777344c0 4.414062 3.585938 8 8 8s8-3.585938 8-8v-116.777344c0-18.328125 6.304688-36.292968 17.753906-50.613281 9.183594-11.472656 14.246094-25.898437 14.246094-40.609375v-56h16v56c0 18.328125-6.304688 36.304688-17.753906 50.609375-9.183594 11.488281-14.246094 25.910156-14.246094 40.613281v116.777344c0 13.230469-10.769531 24-24 24s-24-10.769531-24-24v-116.777344c0-14.703125-5.0625-29.132812-14.246094-40.613281-11.449218-14.304687-17.753906-32.28125-17.753906-50.609375zm-124.167969 113.199219c-2.433593 1.738281-3.832031 4.226562-3.832031 6.800781v144c0 13.230469-10.769531 24-24 24s-24-10.769531-24-24v-144c0-2.574219-1.398438-5.0625-3.832031-6.800781-12.632813-8.992188-20.167969-23.589844-20.167969-39.046875 0-26.144532 18.222656-74.152344 48-74.152344s48 48.007812 48 74.152344c0 15.457031-7.535156 30.054687-20.167969 39.046875zm0 0"/></svg>