<svg id="Capa_1" enable-background="new 0 0 512 512" height="512" viewBox="0 0 512 512" width="512" xmlns="http://www.w3.org/2000/svg"><g><path d="m418.318 252.578h-324.636c-4.268 0-7.74 3.472-7.74 7.74v47.637c0 4.268 3.472 7.74 7.74 7.74h324.636c4.268 0 7.74-3.472 7.74-7.74v-47.637c0-4.268-3.472-7.74-7.74-7.74z"/><path d="m178.15 503.344c.821 4.993 5.137 8.656 10.196 8.656h135.83c5.071 0 9.392-3.679 10.201-8.685l25.309-156.62h-207.31z"/><path d="m387.452 194.06c0-25.369-20.636-46.005-46.005-46.005h-170.894c-25.369 0-46.005 20.636-46.005 46.005v27.518h262.904z"/><path d="m181.496 117.055h146.987c4.22 0 8.009-2.644 9.418-6.622 15.973-45.081-1.491-81.114-42.949-108.717-5.736-3.819-13.562-.969-15.542 5.633-8.566 28.567-39.107 46.667-69.259 50.123-23.943 2.749-41.995 22.764-41.995 46.563-.001 7.181 5.982 13.02 13.34 13.02z"/></g></svg>