<svg id="Capa_1" enable-background="new 0 0 510 510" height="512" viewBox="0 0 510 510" width="512" xmlns="http://www.w3.org/2000/svg"><g><path d="m218.325 110.866c-19.297-44.849-52.105-84.067-98.325-109.705-45.989 25.482-78.708 64.717-97.974 109.65 65.609 52.771 130.103 52.804 196.299.055zm-113.325-35.866h30v30h-30z"/><path d="m228.898 140.492c-70.456 51.799-144.911 53.781-217.433.027-28.774 100.447 4.068 218.998 100.398 277.082.101.064 4.368 2.821 4.098 2.646-48.362 4.023-60.081 46.731-55.961 89.753 39.887-1.488 56.441-27.889 60-60.148 3.559 32.26 20.113 58.66 60 60.148 4.121-43.027-7.602-85.74-55.979-89.753l.152-.087c99.452-57.519 133.991-177.842 104.725-279.668z"/><path d="m398.136 92.398c-.044-.029-4.106-2.653-4.097-2.646 48.361-4.023 60.081-46.731 55.961-89.752-39.887 1.488-56.441 27.889-60 60.148-3.559-32.259-20.113-58.66-60-60.148-4.12 43.025 7.602 85.736 55.972 89.752l-.145.088c-99.452 57.52-133.991 177.842-104.725 279.668 34.642-25.469 70.033-38.763 105.544-39.561 37.804-.853 75.338 12.438 111.89 39.531 28.772-100.447-4.071-218.996-100.4-277.08z"/><path d="m291.675 399.135c19.297 44.849 52.105 84.066 98.325 109.704 45.989-25.482 78.708-64.717 97.974-109.649-65.61-52.772-130.103-52.805-196.299-.055zm113.325 35.865h-30v-30h30z"/></g></svg>