<?xml version="1.0" encoding="iso-8859-1"?>
<!-- Generator: Adobe Illustrator 19.0.0, SVG Export Plug-In . SVG Version: 6.00 Build 0)  -->
<svg version="1.1" id="Capa_1" xmlns="http://www.w3.org/2000/svg" xmlns:xlink="http://www.w3.org/1999/xlink" x="0px" y="0px"
	 viewBox="0 0 512 512" style="enable-background:new 0 0 512 512;" xml:space="preserve">
<g>
	<g>
		<path d="M496,128c8.832,0,16-7.168,16-16c0-8.832-7.168-16-16-16H256V64h240c8.832,0,16-7.168,16-16c0-8.832-7.168-16-16-16H256
			V16c0-8.832-7.168-16-16-16c-8.832,0-16,7.168-16,16v16h-32V16c0-8.832-7.168-16-16-16c-8.832,0-16,7.168-16,16v16h-32V16
			c0-8.832-7.168-16-16-16c-8.832,0-16,7.168-16,16v16H80c-8.832,0-16,7.168-16,16c0,8.832,7.168,16,16,16h16v32H80
			c-8.832,0-16,7.168-16,16c0,8.832,7.168,16,16,16h16v128H0c6.56,91.392,69.152,172.064,160,206.496V496c0,8.832,7.168,16,16,16
			h160c8.832,0,16-7.168,16-16v-33.504C442.88,428.032,505.44,347.392,512,256H256V128H496z M160,256h-32V128h32V256z M160,96h-32
			V64h32V96z M224,256h-32V128h32V256z M224,96h-32V64h32V96z"/>
	</g>
</g>
<g>
</g>
<g>
</g>
<g>
</g>
<g>
</g>
<g>
</g>
<g>
</g>
<g>
</g>
<g>
</g>
<g>
</g>
<g>
</g>
<g>
</g>
<g>
</g>
<g>
</g>
<g>
</g>
<g>
</g>
</svg>
