<svg id="bold" enable-background="new 0 0 24 24" height="512" viewBox="0 0 24 24" width="512" xmlns="http://www.w3.org/2000/svg"><g><g><path d="m24 12.36v2.88c0 .41-.34.75-.75.75h-22.5c-.41 0-.75-.34-.75-.75v-2.87c.24.07.49.12.75.12h22.5c.26 0 .52-.05.75-.13z"/></g></g><g><g><path d="m24 17.36v.88c0 1.52-1.23 2.75-2.75 2.75h-18.5c-1.52 0-2.75-1.23-2.75-2.75v-.88c.23.08.49.13.75.13h22.5c.26 0 .52-.05.75-.13z"/></g></g><g><g><path d="m20.885 2.783c-.763-.775-1.932-1.001-2.986-.574l-17.44 7.34c-.329.139-.515.49-.444.84s.378.602.735.602h22.5c.414 0 .75-.336.75-.75 0-2.817-1.078-5.396-3.115-7.458z"/></g></g></svg>